<?xml version="1.0" encoding="utf-8"?>
<!-- Generator: Adobe Illustrator 27.8.1, SVG Export Plug-In . SVG Version: 6.00 Build 0)  -->
<svg version="1.1" id="Layer_1" xmlns="http://www.w3.org/2000/svg" xmlns:xlink="http://www.w3.org/1999/xlink" x="0px" y="0px"
	 viewBox="0 0 121.7 112.1" style="enable-background:new 0 0 121.7 112.1;" xml:space="preserve">
<style type="text/css">
	.st0{fill:#034A4C;}
	.st1{fill:#C59E35;}
</style>
<g>
	<path class="st0" d="M68.3,64.4c-0.8-0.9-1.4-1.6-1.8-2.1l-6,4.8c0.6,0.7,1.5,1.7,2.5,3.1c1.1,1.4,1.4,2.6,1.1,3.7c0,0,0,0.1,0,0.1
		h0.1l5.4-4.3c0.7-0.6,0.8-1.4,0.4-2.4S69.1,65.3,68.3,64.4L68.3,64.4L68.3,64.4z"/>
	<path class="st0" d="M67.2,32.4c-1.1-1.9-1.2-1.4-1.8-2.8l-8.3-0.4c-1.4,0.9-1.3,2.1,0.1,5.5c1.4,3.4,4.8,8.8,10.2,16.1
		c-3.2,0.5-11.6,4.3-13.6,5.7l-0.2,0.1c-5.5,3.4-7.1,10.1-7.3,12.3c-0.6,3.4,0.3,7.3,2.6,12c0.9,1.5,2.2,3.9,4,7.1s3.2,6.6,4.2,10
		s0.8,6.3-0.7,8.5c0,0.1,0,0.1,0,0.1c0,0,0.1,0,0.1,0l4.2-2.4c2.6-1.7,5.1-5.2,4.9-8.9V95c-0.2-2.5-0.8-5.1-2-7.9
		c-1.2-2.8-2.4-5.3-3.7-7.7c-1.3-2.3-2.3-4.1-2.9-5.2c-0.3-0.7-0.7-1.3-0.9-1.9c-0.3-0.7-0.5-1.4-0.7-2c-0.1-0.3-0.2-0.5-0.2-0.8
		l0,0c-1.1-5.6,1-10.7,5.6-12.3c1.2-0.5,2.6-0.5,3.9-0.4c0.8,0.1,1.7,0.2,2.5,0.3c2.7,0.5,5,1.5,7,3.1c1,0.7,1.9,1.6,2.8,2.6
		l7.9-6.4C76,45.5,70.1,37.5,67.2,32.4L67.2,32.4L67.2,32.4z"/>
</g>
<g>
	<path class="st1" d="M116.9,84.2l-11.4-43c2.3-0.7,4.4-1.8,6.2-3.2c1.7-1.3,2.8-3.4,2.8-5.5c0.1-2-0.8-4-2.3-5.2
		c-0.5-0.4-1.1-0.8-1.7-1c-1.7-0.7-3.5-0.5-5.1,0.5c-1.4,0.9-2.3,2.5-2.4,4.1l-2.4,2.4c-0.2,0.2-0.2,0.6,0,0.9l3.1,3.1
		c0.1,0.1,0.3,0.2,0.4,0.2s0.3-0.1,0.4-0.2l3.1-3.1c0.2-0.2,0.2-0.6,0-0.9l-2.1-2.1v-0.1c0-0.9,0.5-1.8,1.3-2.3
		c0.8-0.5,1.8-0.7,2.7-0.3c0.3,0.1,0.7,0.3,1,0.6c1,0.8,1.5,2,1.4,3.3c0,1.4-0.7,2.8-1.8,3.6c-9.2,7.1-26.5,3.4-37.5-3.3
		c1.8,0.5,3.9,0.9,6,0.9c3.4,0,6.9-1,9.8-3.9c2.1-2,2.9-5,2.2-7.6c-0.6-2-1.9-3.5-3.8-4.2c-2.8-1.1-5.9-0.4-7.8,1.8
		c-0.8,0.9-1.6,2.4-1.6,4.5c-1.8-0.3-5-1.1-7.8-3.2c-1.7-1.3-3-3-3.9-4.9c-0.9-1.9-1.3-4.1-1.4-6.6l2.6-2.6c0.1-0.1,0.2-0.3,0.2-0.5
		S67.3,6,67.1,5.9l-5.7-5.7c-0.3-0.3-0.8-0.3-1.1,0l-5.7,5.7c-0.3,0.3-0.3,0.8,0,1.1l2.6,2.6c-0.1,2.5-0.5,4.7-1.4,6.6
		c-0.9,2-2.2,3.6-3.9,4.9c-2.8,2.1-6,2.9-7.8,3.2c0-2.1-0.8-3.6-1.6-4.5c-1.9-2.2-5-2.9-7.8-1.8c-1.9,0.7-3.2,2.2-3.8,4.2
		c-0.7,2.7,0.1,5.6,2.2,7.6c4.7,4.5,10.7,4.3,15.4,3.1c-11,6.7-28.2,10.2-37.3,3.2c-1.1-0.9-1.8-2.2-1.8-3.6c0-1.3,0.5-2.5,1.4-3.3
		c0.3-0.3,0.6-0.5,1-0.6c0.9-0.4,1.9-0.2,2.7,0.3c0.8,0.5,1.2,1.3,1.3,2.2l-2.3,2.3c-0.2,0.2-0.2,0.6,0,0.9l3.1,3.1
		c0.1,0.1,0.3,0.2,0.4,0.2s0.3-0.1,0.4-0.2l3.1-3.1c0.1-0.1,0.2-0.3,0.2-0.4s-0.1-0.3-0.2-0.4l-2.2-2.2c0-1.7-0.9-3.3-2.4-4.3
		c-1.5-1-3.4-1.2-5.1-0.5c-0.6,0.2-1.1,0.6-1.6,1c-1.5,1.3-2.4,3.2-2.3,5.2c0.1,2.2,1.1,4.2,2.8,5.5c1.9,1.5,4.1,2.5,6.4,3.2
		l-11.4,43H0l2,2.3c8.1,8.9,22,9,30.2,0.2l2.2-2.4h-4.9L18.3,41.7c2,0.4,4.2,0.7,6.4,0.7c11.9,0,25.4-5.8,32-12.6c0,0,0-0.1,0.1-0.1
		h7.9c0,0,0,0.1,0.1,0.1c6.7,6.7,20.1,12.6,32,12.6c2.3,0,4.5-0.2,6.6-0.7L92.1,84.2h-4.9l2.1,2.3c8.1,8.9,22,9,30.2,0.2l2.2-2.4
		L116.9,84.2L116.9,84.2L116.9,84.2z M6.6,84.2l10.6-40l10.6,40H6.6C6.6,84.2,6.6,84.2,6.6,84.2z M58.2,17.1L58.2,17.1l5.4,0v0
		c0.8,1.6,1.8,3.1,3,4.4H55.2C56.4,20.2,57.4,18.8,58.2,17.1L58.2,17.1z M60.3,12.6c0.1,0.1,0.3,0.2,0.5,0.2s0.4-0.1,0.5-0.2
		l0.7-0.7c0.2,1.5,0.5,2.9,1,4.3h-4.6c0.5-1.3,0.8-2.7,1-4.3L60.3,12.6z M35,28c-1.5-1.4-2-3.4-1.5-5.2l0,0c0.3-1.3,1.1-2.1,2.3-2.6
		c0.6-0.2,1.2-0.3,1.7-0.3c1.2,0,2.4,0.5,3.2,1.5c0.8,0.9,1,2,0.9,3.4c-0.1,0-0.3,0.1-0.4,0.1c-0.5,0.1-1.1,0-1.7-0.1
		c-0.5-0.1-1-0.5-1.3-0.9c-0.1-0.1-0.2-0.2-0.2-0.3l1-1c0.1,0,0.1-0.1,0-0.2l-1.2-1.2c-0.1,0-0.2,0-0.2,0l-1.2,1.2
		c-0.1,0.1-0.1,0.2,0,0.2l1.1,1.1c0,0.2,0.1,0.3,0.1,0.5c0.2,0.7,0.7,1.3,1.3,1.8c0.6,0.4,1.3,0.7,2.1,0.9c0.3,0.1,0.7,0.1,1.1,0.2
		c0.1,0,0.2,0,0.3,0c0.1,0,0.2,0,0.3,0c0,0,0.2,0,0.4,0h0.3c0,0,0,0,0.1,0c1.7-0.2,6.1-0.9,10-3.8c0.2-0.1,0.4-0.3,0.6-0.5h13.6
		c0.2,0.2,0.4,0.3,0.6,0.5c4.8,3.7,10.4,3.9,10.7,3.9c0.1,0,0.1,0,0.2,0c0.2,0,0.5,0,0.7,0c0.3,0,0.7-0.1,1.1-0.2
		c0.7-0.2,1.4-0.4,2.1-0.9c0.6-0.4,1.1-1.1,1.3-1.8c0.1-0.2,0.1-0.4,0.1-0.5l1-1c0.1,0,0.1-0.1,0-0.2l-1.2-1.2c-0.1,0-0.2,0-0.2,0
		l-1.2,1.2c-0.1,0.1-0.1,0.2,0,0.2l1,1c-0.1,0.1-0.1,0.2-0.2,0.3c-0.3,0.5-0.8,0.8-1.3,0.9c-0.5,0.1-1.1,0.2-1.7,0.1
		c-0.2,0-0.5-0.1-0.7-0.1c-0.1-1.3,0.2-2.4,0.9-3.3c1.2-1.4,3.2-1.8,5-1.1c1.2,0.5,1.9,1.3,2.3,2.6c0.5,1.8-0.1,3.8-1.6,5.2
		c-7.4,7.3-20-0.5-20.2-0.6c-0.2-0.1-0.4-0.2-0.7-0.2H55.8c-0.2,0-0.5,0.1-0.7,0.2C55,27.5,42.4,35.3,35,28L35,28L35,28z M37.5,23
		l-0.7-0.7l0.9-0.9l0.9,0.9l-0.8,0.8l-0.1,0.1C37.8,23.3,37.5,23,37.5,23z M84.2,23.2l-0.8-0.8l0.9-0.9l0.9,0.9L84.5,23l-0.3,0.3
		L84.2,23.2L84.2,23.2L84.2,23.2z M104.5,44.3l10.6,40H93.9L104.5,44.3C104.5,44.3,104.5,44.3,104.5,44.3z"/>
	<polygon class="st1" points="38.7,106.8 36.5,112.1 83.4,112.1 81.2,106.8 	"/>
</g>
</svg>
