<?xml version="1.0" encoding="UTF-8"?>
<svg id="Layer_1" data-name="Layer 1" xmlns="http://www.w3.org/2000/svg" viewBox="0 0 176.77 133.12">
  <defs>
    <style>
      .cls-1 {
        fill: #034a4c;
      }

      .cls-1, .cls-2 {
        stroke-width: 0px;
      }

      .cls-2 {
        fill: #c59e35;
      }
    </style>
  </defs>
  <g>
    <path class="cls-1" d="m1.67,112.57c.19,0,.34-.07.47-.2.13-.13.19-.29.19-.47s-.06-.35-.19-.48c-.13-.13-.29-.2-.47-.2s-.33.07-.46.2c-.13.13-.19.29-.19.48s.06.34.19.47c.13.13.28.2.46.2Z"/>
    <path class="cls-1" d="m3.31,112.57c.18,0,.34-.07.46-.2.13-.13.19-.29.19-.47s-.06-.35-.19-.48c-.13-.13-.28-.2-.46-.2s-.33.07-.46.2c-.13.13-.19.29-.19.48s.06.34.19.47c.13.13.28.2.46.2Z"/>
    <path class="cls-1" d="m6.34,118.78c-.18,0-.33.07-.46.2-.13.13-.19.29-.19.47s.06.35.19.48.28.19.46.19.34-.07.47-.2c.13-.13.19-.29.19-.47s-.06-.35-.19-.48c-.13-.13-.29-.19-.47-.19Z"/>
    <path class="cls-1" d="m7.99,118.78c-.18,0-.33.07-.46.2-.13.13-.19.29-.19.47s.06.35.19.48c.12.13.28.19.46.19s.33-.07.46-.2c.13-.13.19-.29.19-.47s-.06-.35-.19-.48c-.13-.13-.28-.19-.46-.19Z"/>
    <path class="cls-1" d="m10.77,116.94h-2.58v-3.62h-1.3v3.62h-2.21v-3.4c-.6-.23-1.29-.34-2.06-.34-.86,0-1.52.25-1.99.75-.42.45-.63,1.03-.63,1.73,0,1.53.88,2.29,2.65,2.29h9.42v-4.65h-1.3v3.62Zm-7.35,0h-.63c-.99,0-1.49-.46-1.49-1.38,0-.39.1-.71.31-.96.21-.25.5-.38.86-.38s.69.06.94.18v2.54Z"/>
    <path class="cls-1" d="m11.42,111.13c-.19,0-.35.07-.48.2-.13.14-.2.3-.2.48s.07.36.2.49c.13.13.29.19.48.19s.35-.07.48-.2c.13-.14.2-.3.2-.48s-.07-.35-.2-.48c-.13-.13-.3-.2-.48-.2Z"/>
    <path class="cls-1" d="m20.58,111.13c-.19,0-.35.07-.48.2-.13.14-.2.3-.2.48s.07.36.2.49c.13.13.29.19.48.19s.35-.07.48-.2c.13-.14.2-.3.2-.48s-.07-.35-.2-.48c-.13-.13-.3-.2-.48-.2Z"/>
    <path class="cls-1" d="m19.93,116.94h-2.21v-3.4c-.6-.23-1.29-.34-2.06-.34-.86,0-1.52.25-1.99.75-.42.45-.63,1.03-.63,1.73,0,1.53.88,2.29,2.65,2.29h.77v.15c0,.88-.57,1.31-1.71,1.31-.51,0-1.02-.06-1.54-.17l-.08,1.07c.51.09,1.01.13,1.51.13,1.05,0,1.84-.24,2.37-.72.48-.43.72-1.01.72-1.75v-.02h3.51v-4.65h-1.3v3.62Zm-3.47,0h-.63c-.99,0-1.49-.46-1.49-1.38,0-.39.1-.71.31-.96.21-.25.5-.38.86-.38s.69.06.94.18v2.54Z"/>
    <path class="cls-1" d="m27.12,112.57c.18,0,.34-.07.47-.2.13-.13.19-.29.19-.47s-.06-.35-.19-.48c-.13-.13-.28-.2-.47-.2s-.34.07-.46.2c-.13.13-.19.29-.19.48s.06.34.19.47c.13.13.28.2.46.2Z"/>
    <path class="cls-1" d="m28.76,112.57c.18,0,.33-.07.46-.2.13-.13.19-.29.19-.47s-.06-.35-.19-.48c-.13-.13-.28-.2-.46-.2s-.34.07-.46.2c-.13.13-.19.29-.19.48s.06.34.19.47c.13.13.28.2.46.2Z"/>
    <path class="cls-1" d="m32.1,116.94h-1.6c-.23,0-.48.02-.75.05.38-.32.57-.82.57-1.49,0-.77-.21-1.35-.62-1.74-.4-.37-.96-.56-1.68-.56s-1.35.23-1.81.7c-.46.46-.69,1.05-.69,1.77,0,.58.15,1.02.45,1.33-.2-.03-.4-.05-.6-.05h-1.25v-5.94h-1.3v6.97h10.6v-6.97h-1.3v5.94Zm-3.41-.34c-.19.23-.45.34-.78.34-.73,0-1.1-.46-1.1-1.39,0-.43.12-.77.35-1.01.2-.21.46-.31.77-.31.72,0,1.08.45,1.08,1.34,0,.44-.11.79-.32,1.03Z"/>
    <rect class="cls-1" x="35.08" y="111" width="1.3" height="6.97"/>
    <path class="cls-1" d="m43.94,112.57c.18,0,.33-.07.46-.2.13-.13.19-.29.19-.47s-.06-.35-.19-.48c-.13-.13-.28-.2-.46-.2s-.34.07-.46.2-.19.29-.19.48.06.34.19.47c.13.13.28.2.46.2Z"/>
    <path class="cls-1" d="m42.3,112.57c.19,0,.34-.07.47-.2.13-.13.19-.29.19-.47s-.06-.35-.19-.48c-.13-.13-.29-.2-.47-.2s-.34.07-.46.2-.19.29-.19.48.06.34.19.47c.13.13.28.2.46.2Z"/>
    <path class="cls-1" d="m44.75,116.94h-1.35c-.9,0-1.54-.17-1.92-.5-.36-.31-.54-.83-.54-1.54,0-.6.11-1.14.34-1.63l-1.39.23c-.17.47-.26.99-.26,1.55,0,.95.27,1.66.81,2.14.59.52,1.53.79,2.82.79h2.78v-4.65h-1.3v3.62Z"/>
    <rect class="cls-1" x="47.63" y="111" width="1.3" height="6.97"/>
    <path class="cls-1" d="m51.08,118.08c0,.51-.1.87-.28,1.09-.17.19-.43.29-.79.29-.26,0-.53-.04-.8-.12l-.1,1.04c.26.06.54.1.83.1,1.63,0,2.44-.82,2.44-2.47v-4.69h-1.3v4.76Z"/>
    <path class="cls-1" d="m60.02,112.57c.18,0,.34-.07.46-.2.12-.13.19-.29.19-.47s-.06-.35-.19-.48c-.13-.13-.28-.2-.46-.2s-.33.07-.46.2c-.13.13-.19.29-.19.48s.06.34.19.47c.13.13.28.2.46.2Z"/>
    <path class="cls-1" d="m60.83,111.17c.17,0,.32-.06.43-.18.12-.12.18-.27.18-.44s-.06-.32-.18-.44c-.12-.12-.26-.18-.43-.18s-.31.06-.43.18c-.12.12-.17.27-.17.44s.06.32.17.44c.12.12.26.18.43.18Z"/>
    <path class="cls-1" d="m61,111.9c0,.19.06.34.19.47.13.13.29.2.47.2s.33-.07.46-.2c.13-.13.19-.29.19-.47s-.06-.35-.19-.48c-.13-.13-.28-.2-.46-.2s-.34.07-.47.2c-.13.13-.19.29-.19.48Z"/>
    <path class="cls-1" d="m67.74,112.57c.18,0,.33-.07.46-.2.13-.13.19-.29.19-.47s-.06-.35-.19-.48c-.13-.13-.28-.2-.46-.2s-.33.07-.46.2c-.13.13-.19.29-.19.48s.06.34.19.47c.13.13.28.2.46.2Z"/>
    <path class="cls-1" d="m66.1,112.57c.19,0,.34-.07.47-.2.13-.13.19-.29.19-.47s-.06-.35-.19-.48c-.13-.13-.29-.2-.47-.2s-.33.07-.46.2c-.13.13-.19.29-.19.48s.06.34.19.47c.13.13.28.2.46.2Z"/>
    <path class="cls-1" d="m75.11,113.1c.19.86.29,1.74.29,2.65,0,.42-.02.82-.07,1.19h-.26c-.46,0-.77-.06-.93-.18-.16-.12-.24-.38-.24-.76v-2.48h-1.25v2.23c0,.84-.26,1.26-.79,1.26-.28,0-.47-.1-.56-.3-.08-.17-.12-.49-.12-.97v-1.83h-1.3v1.8c0,.47-.07.8-.21.97-.13.17-.36.25-.69.25h-1.22v-3.62h-1.3v3.62h-2.2c.03-.48.05-.91.05-1.27,0-.94-.11-1.85-.32-2.74l-1.27.17c.19.86.29,1.74.29,2.65,0,.42-.02.82-.07,1.19h-.26c-.46,0-.77-.06-.93-.18-.16-.12-.24-.38-.24-.76v-2.48h-1.25v2.23c0,.84-.26,1.26-.79,1.26-.28,0-.47-.1-.56-.3-.08-.17-.12-.49-.12-.97v-1.83h-1.3v1.8c0,.47-.07.8-.21.97-.13.17-.36.25-.69.25h-1.33v-5.94h-1.3v6.97h2.62c.68,0,1.11-.23,1.32-.69.17.51.61.77,1.31.77.76,0,1.26-.25,1.49-.76.14.26.35.45.63.55.26.09.66.13,1.2.13h6.45c.68,0,1.11-.23,1.32-.69.17.51.61.77,1.31.77.76,0,1.26-.25,1.49-.76.14.26.35.45.63.55.26.09.66.13,1.2.13h1.63c.1-.7.15-1.47.15-2.3,0-.94-.11-1.85-.32-2.74l-1.27.17Z"/>
    <polygon class="cls-1" points="80.42 116.94 77.37 116.94 77.37 117.97 81.73 117.97 81.73 111 80.42 111 80.42 116.94"/>
    <polygon class="cls-1" points="79.7 116.2 78.26 110.93 76.96 111.11 78.38 116.2 79.7 116.2"/>
    <rect class="cls-1" x="83.4" y="111" width="1.3" height="6.97"/>
    <path class="cls-1" d="m86.1,113.95c-.42.45-.63,1.03-.63,1.73,0,1.53.88,2.29,2.65,2.29h.77v.15c0,.88-.57,1.31-1.71,1.31-.51,0-1.02-.06-1.54-.17l-.08,1.07c.51.09,1.01.13,1.51.13,1.05,0,1.84-.24,2.37-.72.48-.43.72-1.01.72-1.75v-4.45c-.6-.23-1.29-.34-2.06-.34-.86,0-1.52.25-1.99.75Zm2.79,2.99h-.63c-.99,0-1.49-.46-1.49-1.38,0-.39.1-.71.31-.96.21-.25.5-.38.86-.38s.69.06.94.18v2.54Z"/>
    <path class="cls-1" d="m96.51,112.57c.18,0,.34-.07.46-.2.12-.13.19-.29.19-.47s-.06-.35-.19-.48c-.13-.13-.28-.2-.46-.2s-.33.07-.46.2c-.12.13-.19.29-.19.48s.06.34.19.47c.13.13.28.2.46.2Z"/>
    <path class="cls-1" d="m94.87,112.57c.19,0,.34-.07.47-.2.12-.13.19-.29.19-.47s-.06-.35-.19-.48c-.13-.13-.29-.2-.47-.2s-.33.07-.46.2c-.12.13-.19.29-.19.48s.06.34.19.47c.13.13.28.2.46.2Z"/>
    <path class="cls-1" d="m95.78,113.19c-.82,0-1.47.25-1.94.74-.43.46-.65,1.04-.65,1.75,0,1.52.88,2.28,2.65,2.28h2.16v-2.5c0-1.52-.74-2.27-2.23-2.27Zm.96,3.75h-.75c-.99,0-1.49-.46-1.49-1.38,0-.39.1-.71.31-.96.21-.25.5-.38.86-.38.7,0,1.06.47,1.06,1.4v1.31Z"/>
    <path class="cls-1" d="m104.81,113.19c-.82,0-1.46.24-1.93.73-.42.44-.64,1-.64,1.67s.18,1.15.55,1.41c-.14-.04-.32-.07-.55-.07h-1.4v-5.94h-1.3v6.97h7.51v-2.5c0-1.52-.74-2.27-2.23-2.27Zm.96,3.75h-.75c-.99,0-1.48-.46-1.48-1.38,0-.39.1-.71.31-.96.22-.25.51-.38.87-.38.7,0,1.06.47,1.06,1.4v1.31Z"/>
    <path class="cls-1" d="m127.48,116.94h-2.07v-5.94h-1.3v5.94h-1.9v-1.47c0-1.52-.74-2.27-2.23-2.27-.82,0-1.46.24-1.93.73-.42.44-.64,1-.64,1.67,0,.5-.1.85-.3,1.06-.18.19-.47.29-.85.29h-.42c.03-.25.04-.52.04-.8,0-.97-.24-1.68-.72-2.15-.5-.49-1.29-.73-2.38-.73-.38,0-.8.03-1.26.09v1.02c.39-.05.77-.08,1.13-.08.7,0,1.2.16,1.51.48.29.3.43.78.43,1.42,0,.24-.02.49-.05.75h-4.67v-5.94h-1.3v6.97h8.04v-.02c.72-.04,1.19-.28,1.37-.76.41.52,1.15.77,2.21.77h8.6v-6.97h-1.3v5.94Zm-6.54,0h-.75c-.99,0-1.48-.46-1.48-1.38,0-.39.1-.71.31-.96.21-.25.5-.38.87-.38.7,0,1.06.47,1.06,1.4v1.31Z"/>
    <path class="cls-1" d="m133.51,112.49c.19,0,.35-.07.48-.2.13-.14.2-.3.2-.48s-.07-.35-.2-.48c-.13-.13-.29-.2-.48-.2s-.35.07-.48.2c-.13.14-.2.3-.2.48s.07.36.2.49c.13.13.3.19.48.19Z"/>
    <path class="cls-1" d="m138.01,118.77c-.19,0-.35.07-.48.2-.13.13-.2.3-.2.48s.07.36.2.49c.13.13.3.2.48.2s.35-.07.48-.2c.13-.13.2-.29.2-.48s-.07-.35-.2-.48c-.13-.13-.29-.2-.48-.2Z"/>
    <path class="cls-1" d="m150.12,118.77c-.19,0-.35.07-.48.2s-.2.3-.2.48.07.36.2.49c.13.13.29.2.48.2s.35-.07.48-.2c.14-.13.2-.29.2-.48s-.07-.35-.2-.48c-.13-.13-.29-.2-.48-.2Z"/>
    <path class="cls-1" d="m149.84,113.26c-.38,0-.8.03-1.26.09v1.02c.39-.05.77-.08,1.13-.08.7,0,1.2.16,1.51.48.29.3.43.78.43,1.42,0,.24-.02.49-.05.75h-4.41v-.03c0-2.71-1.29-4.06-3.88-4.06-.8,0-1.6.13-2.39.39l.12.93c.72-.24,1.43-.36,2.11-.36.97,0,1.69.25,2.14.74.44.49.66,1.24.66,2.27v.12h-1v-.23c0-.6-.14-1.08-.41-1.43-.31-.39-.78-.59-1.41-.59-.58,0-1.05.16-1.39.47-.33.3-.5.7-.5,1.19,0,.26.09.47.26.63-.13-.03-.29-.05-.46-.05h-1.64v-3.62h-1.3v3.62h-1.88c-.06-1.08-.37-1.93-.92-2.55-.53-.59-1.31-1.03-2.36-1.3l-.31,1.09c1.5.38,2.27,1.3,2.33,2.77h-2.93v1.03h20.77c.11-.67.17-1.28.17-1.83,0-.97-.24-1.68-.72-2.15-.5-.49-1.29-.73-2.38-.73Zm-5.95,3.71h-.65c-.62,0-.93-.26-.93-.78,0-.45.25-.68.74-.68.56,0,.84.39.84,1.18v.28Z"/>
    <path class="cls-1" d="m157.46,112.57c.19,0,.34-.07.47-.2.13-.13.19-.29.19-.47s-.06-.35-.19-.48c-.13-.13-.29-.2-.47-.2s-.33.07-.46.2c-.13.13-.19.29-.19.48s.06.34.19.47c.12.13.28.2.46.2Z"/>
    <path class="cls-1" d="m159.1,112.57c.18,0,.34-.07.46-.2.13-.13.19-.29.19-.47s-.06-.35-.19-.48c-.12-.13-.28-.2-.46-.2s-.33.07-.46.2c-.13.13-.19.29-.19.48s.06.34.19.47c.12.13.28.2.46.2Z"/>
    <path class="cls-1" d="m165.5,117.31c0-1.89-.73-3.16-2.19-3.82l2.41-1.45v-1.29l-3.92,2.45v.96c1.56.36,2.36,1.29,2.42,2.79h-3.75v-3.4c-.6-.23-1.29-.34-2.07-.34-.86,0-1.52.25-1.99.75-.42.45-.63,1.03-.63,1.73,0,1.53.88,2.29,2.65,2.29h7.06v-.66Zm-6.29-.37h-.63c-.99,0-1.49-.46-1.49-1.38,0-.39.1-.71.31-.96.21-.25.5-.38.86-.38s.69.06.94.18v2.54Z"/>
    <path class="cls-1" d="m176.45,112.93l-1.27.17c.19.86.29,1.74.29,2.65,0,.42-.02.82-.07,1.19h-.26c-.46,0-.77-.06-.93-.18-.16-.12-.24-.38-.24-.76v-2.48h-1.25v2.23c0,.84-.26,1.26-.79,1.26-.28,0-.47-.1-.56-.3-.08-.17-.12-.49-.12-.97v-1.83h-1.3v1.8c0,.47-.07.8-.21.97-.13.17-.36.25-.68.25h-1.16v-3.62h-1.3v4.76c0,.51-.09.87-.29,1.09-.17.19-.43.29-.79.29-.26,0-.53-.04-.8-.12l-.1,1.04c.26.06.54.1.83.1,1.63,0,2.44-.82,2.44-2.47v-.04h1.15c.68,0,1.11-.23,1.32-.69.17.51.61.77,1.31.77.76,0,1.26-.25,1.49-.76.14.26.35.45.63.55.26.09.66.13,1.2.13h1.63c.1-.7.15-1.47.15-2.3,0-.94-.11-1.85-.32-2.74Z"/>
    <path class="cls-1" d="m173.46,111.9c0,.19.06.34.19.47.13.13.29.2.47.2s.33-.07.46-.2c.12-.13.19-.29.19-.47s-.06-.35-.19-.48c-.13-.13-.28-.2-.46-.2s-.34.07-.47.2c-.12.13-.19.29-.19.48Z"/>
    <path class="cls-1" d="m173.29,111.17c.17,0,.32-.06.43-.18.12-.12.18-.27.18-.44s-.06-.32-.18-.44c-.12-.12-.26-.18-.43-.18s-.31.06-.43.18c-.12.12-.17.27-.17.44s.06.32.17.44c.12.12.26.18.43.18Z"/>
    <path class="cls-1" d="m172.48,112.57c.18,0,.34-.07.46-.2.12-.13.19-.29.19-.47s-.06-.35-.19-.48c-.13-.13-.28-.2-.46-.2s-.33.07-.46.2c-.12.13-.19.29-.19.48s.06.34.19.47c.13.13.28.2.46.2Z"/>
  </g>
  <g>
    <path class="cls-1" d="m1.35,131.17c0,.33-.05.56-.14.69-.1.13-.28.2-.54.2-.18,0-.38-.04-.58-.12l-.09,1.06c.23.07.46.1.69.1.69,0,1.18-.18,1.48-.54.28-.33.42-.83.42-1.51v-5.19h-1.25v5.32Z"/>
    <path class="cls-1" d="m1.97,123.63c-.22,0-.4.07-.56.22-.15.15-.23.33-.23.54s.08.39.23.53.34.22.56.22.4-.07.55-.22c.15-.15.23-.32.23-.53s-.08-.39-.23-.54c-.15-.15-.33-.22-.55-.22Z"/>
    <path class="cls-1" d="m7.75,127.45c0-.57-.14-.99-.42-1.25-.31-.3-.82-.45-1.55-.45-.67,0-1.29.11-1.84.33l.21.95c.52-.22,1.01-.33,1.48-.33.32,0,.54.07.68.2.13.13.2.34.2.64v.18c-.88,0-1.56.14-2.05.41-.51.29-.77.71-.77,1.27,0,.4.12.73.36.98.26.26.6.39,1.03.39.77,0,1.29-.31,1.56-.92h0c-.03.22-.05.49-.05.83h1.2c-.03-.35-.04-.77-.04-1.24v-1.99Zm-1.25,1.21c0,.3-.09.57-.28.8-.2.24-.44.37-.74.37-.18,0-.32-.05-.43-.17-.1-.1-.16-.24-.16-.4,0-.49.54-.73,1.61-.73v.13Z"/>
    <path class="cls-1" d="m11.94,125.76c-.75,0-1.28.3-1.6.89h-.02c.06-.25.09-.58.09-.98v-2.08h-1.25v7.1h1.25v-2.32c0-.43.11-.8.33-1.11s.49-.46.8-.46c.41,0,.61.27.61.8v3.09h1.25v-3.39c0-1.02-.48-1.53-1.45-1.53Z"/>
    <path class="cls-1" d="m17.34,125.76c-.72,0-1.21.29-1.47.85h0c.05-.27.08-.58.08-.94v-2.08h-1.25v6.96c.56.16,1.16.23,1.81.23.82,0,1.47-.25,1.95-.76.46-.5.69-1.16.69-1.99,0-.72-.15-1.28-.46-1.67-.31-.4-.76-.59-1.34-.59Zm-.75,4.03c-.26,0-.48-.03-.66-.09v-1.36c0-.42.09-.78.28-1.08.2-.32.46-.47.77-.47.56,0,.83.45.83,1.36,0,1.1-.41,1.65-1.23,1.65Z"/>
    <path class="cls-1" d="m23.97,127.45c0-.57-.14-.99-.42-1.25-.31-.3-.82-.45-1.55-.45-.67,0-1.29.11-1.84.33l.21.95c.52-.22,1.01-.33,1.48-.33.32,0,.54.07.68.2.13.13.2.34.2.64v.18c-.88,0-1.56.14-2.05.41-.51.29-.77.71-.77,1.27,0,.4.12.73.36.98.26.26.6.39,1.03.39.77,0,1.29-.31,1.56-.92h0c-.03.22-.05.49-.05.83h1.2c-.03-.35-.04-.77-.04-1.24v-1.99Zm-1.25,1.21c0,.3-.09.57-.28.8-.2.24-.44.37-.74.37-.18,0-.32-.05-.43-.17-.1-.1-.16-.24-.16-.4,0-.49.54-.73,1.61-.73v.13Z"/>
    <path class="cls-1" d="m27.27,129.73c-.22,0-.37-.06-.45-.17-.09-.11-.13-.32-.13-.63v-2.12h1.19v-.96h-1.19v-1.82l-1.25.33v1.49h-.84v.96h.84v2.45c0,.57.1.96.3,1.18.2.22.57.33,1.11.33.34,0,.69-.04,1.06-.13l-.09-.98c-.16.04-.34.07-.56.07Z"/>
    <path class="cls-1" d="m31.72,125.76c-.75,0-1.28.3-1.6.89h-.02c.06-.25.09-.58.09-.98v-2.08h-1.25v7.1h1.25v-2.32c0-.43.11-.8.33-1.11s.49-.46.8-.46c.41,0,.61.27.61.8v3.09h1.25v-3.39c0-1.02-.48-1.53-1.45-1.53Z"/>
    <polygon class="cls-1" points="37.73 124.12 36.46 124.12 36.46 130.68 39.88 130.68 39.88 129.58 37.73 129.58 37.73 124.12"/>
    <path class="cls-1" d="m44.54,127.45c0-.57-.14-.99-.42-1.25-.31-.3-.82-.45-1.55-.45-.67,0-1.29.11-1.84.33l.21.95c.52-.22,1.01-.33,1.48-.33.32,0,.54.07.68.2.13.13.2.34.2.64v.18c-.88,0-1.56.14-2.05.41-.51.29-.77.71-.77,1.27,0,.4.12.73.36.98.26.26.6.39,1.03.39.77,0,1.29-.31,1.56-.92h0c-.03.22-.05.49-.05.83h1.2c-.03-.35-.04-.77-.04-1.24v-1.99Zm-1.25,1.21c0,.3-.09.57-.28.8-.2.24-.44.37-.74.37-.18,0-.32-.05-.43-.17-.1-.1-.16-.24-.16-.4,0-.49.54-.73,1.61-.73v.13Z"/>
    <path class="cls-1" d="m50.98,127.74c-.14.54-.25,1.01-.33,1.4h-.02c-.07-.33-.2-.81-.39-1.46l-.6-1.83h-1.21l-.59,1.88c-.17.56-.28,1.03-.35,1.4h0c-.04-.17-.17-.66-.38-1.46l-.52-1.83h-1.37l1.49,4.83h1.3l.62-2.01c.14-.44.25-.85.33-1.21h0c.08.36.17.73.28,1.09l.7,2.14h1.36l1.53-4.83h-1.28l-.56,1.88Z"/>
    <polygon class="cls-1" points="55.52 130.68 56.79 130.68 56.79 127.92 58.93 127.92 58.93 126.88 56.79 126.88 56.79 125.2 59.06 125.2 59.06 124.12 55.52 124.12 55.52 130.68"/>
    <rect class="cls-1" x="59.96" y="125.85" width="1.25" height="4.83"/>
    <path class="cls-1" d="m60.58,123.63c-.22,0-.4.07-.55.22-.15.15-.23.33-.23.54s.07.39.23.53c.15.15.33.22.55.22s.4-.07.56-.22c.15-.15.23-.32.23-.53s-.08-.39-.23-.54c-.15-.15-.34-.22-.56-.22Z"/>
    <path class="cls-1" d="m63.68,126.82h-.02c.06-.34.09-.67.09-.97h-1.19v4.83h1.25v-1.97c0-1.33.45-1.91,1.35-1.74l.06-1.22c-.73-.07-1.25.29-1.55,1.07Z"/>
    <path class="cls-1" d="m71.76,125.76c-.75,0-1.28.32-1.59.96-.16-.64-.61-.96-1.35-.96s-1.29.32-1.6.97h0c.04-.28.06-.57.06-.87h-1.19v4.83h1.25v-2.31c0-.44.11-.82.34-1.13.22-.3.48-.45.78-.45.38,0,.57.28.57.83v3.06h1.24v-2.31c0-.46.12-.84.35-1.14.22-.29.48-.43.77-.43.39,0,.58.28.58.83v3.05h1.25v-3.32c0-1.07-.49-1.6-1.46-1.6Z"/>
    <path class="cls-1" d="m80.25,127.45c0-.57-.14-.99-.42-1.25-.31-.3-.82-.45-1.55-.45-.67,0-1.29.11-1.84.33l.21.95c.52-.22,1.01-.33,1.48-.33.32,0,.54.07.68.2.13.13.2.34.2.64v.18c-.88,0-1.56.14-2.05.41-.51.29-.77.71-.77,1.27,0,.4.12.73.36.98.26.26.6.39,1.03.39.77,0,1.29-.31,1.56-.92h0c-.03.22-.05.49-.05.83h1.2c-.03-.35-.04-.77-.04-1.24v-1.99Zm-1.25,1.21c0,.3-.09.57-.28.8-.2.24-.44.37-.74.37-.18,0-.32-.05-.43-.17-.1-.1-.16-.24-.16-.4,0-.49.54-.73,1.61-.73v.13Z"/>
    <path class="cls-1" d="m84.35,125.76c-.77,0-1.33.32-1.66.96h-.01c.05-.23.07-.52.07-.86h-1.19v4.83h1.25v-2.33c0-.42.11-.79.33-1.09.22-.31.49-.46.8-.46.41,0,.61.27.61.8v3.09h1.25v-3.39c0-1.02-.48-1.53-1.45-1.53Z"/>
    <path class="cls-1" d="m90.01,125.8c-.19-.03-.4-.04-.62-.04-.8,0-1.43.26-1.9.77-.46.5-.69,1.16-.69,1.99,0,.71.15,1.26.44,1.65.31.41.75.62,1.34.62.73,0,1.25-.31,1.54-.92h.02c-.04.26-.06.53-.06.81h1.17v-7.1h-1.25v2.22Zm0,2.37c0,.43-.09.8-.28,1.1-.2.32-.46.48-.77.48-.56,0-.84-.46-.84-1.37,0-1.09.41-1.64,1.23-1.64.2,0,.42.03.66.08v1.35Z"/>
    <polygon class="cls-1" points="95.81 124.12 94.54 124.12 94.54 130.68 97.97 130.68 97.97 129.58 95.81 129.58 95.81 124.12"/>
    <path class="cls-1" d="m100.81,125.76c-.71,0-1.28.25-1.7.74-.41.47-.61,1.07-.61,1.82,0,1.65.8,2.47,2.4,2.47.61,0,1.2-.1,1.76-.31l-.13-.94c-.47.19-.94.29-1.41.29-.9,0-1.35-.44-1.35-1.31h3.01c.03-.18.05-.41.05-.7,0-.61-.16-1.1-.47-1.46-.35-.4-.87-.59-1.55-.59Zm-1.03,1.92c.07-.67.39-1.01.96-1.01s.86.34.84,1.01h-1.8Z"/>
    <path class="cls-1" d="m106.64,129.78l-.75-.03c-.29,0-.49-.03-.59-.07-.11-.04-.16-.12-.16-.23,0-.14.08-.24.24-.31.12.03.25.04.38.04.68,0,1.2-.16,1.57-.48.35-.31.52-.73.52-1.26,0-.26-.08-.46-.24-.61h.67v-.97h-1.66c-.28-.07-.54-.1-.79-.1-.68,0-1.21.18-1.6.55-.36.34-.54.77-.54,1.28,0,.62.24,1.06.72,1.32-.39.17-.58.46-.58.86,0,.34.16.59.48.74-.5.27-.76.67-.76,1.19,0,.47.19.82.56,1.07.36.24.87.37,1.53.37.79,0,1.44-.19,1.94-.57.49-.36.73-.81.73-1.35,0-.91-.55-1.38-1.66-1.42Zm-1.55-2.89c.17-.16.39-.24.67-.24.59,0,.88.29.88.85s-.29.83-.88.83-.91-.28-.91-.83c0-.25.08-.45.24-.6Zm1.64,5.04c-.22.16-.53.23-.93.23-.32,0-.57-.06-.76-.19-.19-.13-.28-.31-.28-.53,0-.28.15-.53.45-.74l1.07.03c.51.02.77.23.77.62,0,.24-.11.43-.32.57Z"/>
    <path class="cls-1" d="m112.98,127.45c0-.57-.14-.99-.42-1.25-.31-.3-.82-.45-1.55-.45-.67,0-1.29.11-1.84.33l.21.95c.52-.22,1.01-.33,1.48-.33.32,0,.54.07.67.2.13.13.2.34.2.64v.18c-.88,0-1.56.14-2.05.41-.51.29-.77.71-.77,1.27,0,.4.12.73.36.98.26.26.6.39,1.03.39.77,0,1.29-.31,1.56-.92h0c-.03.22-.05.49-.05.83h1.2c-.03-.35-.04-.77-.04-1.24v-1.99Zm-1.25,1.21c0,.3-.09.57-.28.8-.2.24-.44.37-.74.37-.18,0-.32-.05-.43-.17-.11-.1-.16-.24-.16-.4,0-.49.54-.73,1.61-.73v.13Z"/>
    <rect class="cls-1" x="114.39" y="123.59" width="1.25" height="7.1"/>
    <path class="cls-1" d="m121.94,129.62c-1.29,0-1.93-.74-1.93-2.22,0-.67.15-1.2.46-1.58.33-.42.79-.62,1.39-.62.46,0,.89.08,1.29.23l.18-1.17c-.44-.13-.91-.2-1.41-.2-1.08,0-1.9.33-2.49,1-.55.63-.83,1.48-.83,2.55,0,.92.22,1.65.66,2.19.52.64,1.32.96,2.4.96.62,0,1.19-.1,1.72-.3l-.2-1.12c-.38.18-.8.28-1.25.28Z"/>
    <path class="cls-1" d="m126.73,125.76c-.73,0-1.33.24-1.8.73-.46.48-.69,1.1-.69,1.86,0,1.62.76,2.43,2.28,2.43.72,0,1.32-.24,1.79-.73.47-.49.7-1.11.7-1.87,0-.81-.21-1.42-.62-1.84-.39-.39-.95-.58-1.67-.58Zm.67,3.59c-.2.25-.46.37-.78.37-.73,0-1.09-.5-1.09-1.49,0-.47.11-.83.34-1.08.2-.22.46-.34.77-.34.72,0,1.08.48,1.08,1.44,0,.47-.11.84-.32,1.11Z"/>
    <path class="cls-1" d="m132.72,125.76c-.77,0-1.33.32-1.66.96h-.01c.05-.23.07-.52.07-.86h-1.19v4.83h1.25v-2.33c0-.42.11-.79.33-1.09.22-.31.49-.46.8-.46.41,0,.61.27.61.8v3.09h1.25v-3.39c0-1.02-.48-1.53-1.45-1.53Z"/>
    <path class="cls-1" d="m137.51,127.89l-.69-.28c-.21-.11-.32-.26-.32-.43,0-.33.24-.5.72-.5.3,0,.59.04.88.13l.06-.97c-.3-.06-.6-.09-.88-.09-.67,0-1.2.15-1.57.45-.33.28-.5.64-.5,1.09,0,.61.33,1.04.99,1.29.43.17.66.25.68.26.21.11.31.26.31.44,0,.35-.26.53-.79.53-.39,0-.74-.07-1.04-.19l-.09,1.04c.3.08.67.12,1.09.12.64,0,1.16-.15,1.56-.44.39-.29.59-.68.59-1.16,0-.59-.34-1.02-1.01-1.29Z"/>
    <path class="cls-1" d="m142.54,128.19c0,.43-.11.79-.33,1.09-.22.31-.49.46-.8.46-.41,0-.61-.27-.61-.8v-3.09h-1.25v3.39c0,1.02.48,1.53,1.45,1.53.77,0,1.32-.32,1.66-.96h0c-.04.2-.06.49-.06.86h1.18v-4.83h-1.25v2.33Z"/>
    <rect class="cls-1" x="145.19" y="123.59" width="1.25" height="7.1"/>
    <path class="cls-1" d="m149.77,129.73c-.22,0-.37-.06-.45-.17-.09-.11-.13-.32-.13-.63v-2.12h1.19v-.96h-1.19v-1.82l-1.25.33v1.49h-.84v.96h.84v2.45c0,.57.1.96.3,1.18.2.22.57.33,1.11.33.34,0,.69-.04,1.06-.13l-.09-.98c-.16.04-.34.07-.56.07Z"/>
    <path class="cls-1" d="m155.2,127.45c0-.57-.14-.99-.42-1.25-.31-.3-.82-.45-1.55-.45-.67,0-1.29.11-1.84.33l.21.95c.52-.22,1.01-.33,1.48-.33.32,0,.54.07.67.2.13.13.2.34.2.64v.18c-.88,0-1.56.14-2.05.41-.51.29-.77.71-.77,1.27,0,.4.12.73.36.98.26.26.6.39,1.03.39.77,0,1.29-.31,1.56-.92h0c-.03.22-.05.49-.05.83h1.2c-.03-.35-.04-.77-.04-1.24v-1.99Zm-1.25,1.21c0,.3-.09.57-.28.8-.2.24-.44.37-.74.37-.18,0-.32-.05-.43-.17-.11-.1-.16-.24-.16-.4,0-.49.54-.73,1.61-.73v.13Z"/>
    <path class="cls-1" d="m158.49,129.73c-.22,0-.37-.06-.45-.17-.09-.11-.13-.32-.13-.63v-2.12h1.19v-.96h-1.19v-1.82l-1.25.33v1.49h-.84v.96h.84v2.45c0,.57.1.96.3,1.18.2.22.57.33,1.11.33.34,0,.69-.04,1.06-.13l-.09-.98c-.16.04-.34.07-.56.07Z"/>
    <rect class="cls-1" x="160.14" y="125.85" width="1.25" height="4.83"/>
    <path class="cls-1" d="m160.77,123.63c-.22,0-.4.07-.55.22-.15.15-.23.33-.23.54s.08.39.23.53.33.22.55.22.4-.07.56-.22c.15-.15.23-.32.23-.53s-.08-.39-.23-.54c-.15-.15-.34-.22-.56-.22Z"/>
    <path class="cls-1" d="m164.89,125.76c-.73,0-1.33.24-1.8.73-.46.48-.69,1.1-.69,1.86,0,1.62.76,2.43,2.28,2.43.72,0,1.32-.24,1.79-.73.47-.49.7-1.11.7-1.87,0-.81-.21-1.42-.62-1.84-.39-.39-.95-.58-1.67-.58Zm.67,3.59c-.2.25-.46.37-.78.37-.73,0-1.09-.5-1.09-1.49,0-.47.11-.83.34-1.08.2-.22.46-.34.77-.34.72,0,1.08.48,1.08,1.44,0,.47-.11.84-.32,1.11Z"/>
    <path class="cls-1" d="m170.88,125.76c-.77,0-1.33.32-1.66.96h-.01c.05-.23.07-.52.07-.86h-1.19v4.83h1.25v-2.33c0-.42.11-.79.33-1.09.22-.31.49-.46.8-.46.41,0,.61.27.61.8v3.09h1.25v-3.39c0-1.02-.48-1.53-1.45-1.53Z"/>
    <path class="cls-1" d="m175.66,127.89l-.69-.28c-.21-.11-.32-.26-.32-.43,0-.33.24-.5.72-.5.3,0,.59.04.88.13l.06-.97c-.3-.06-.6-.09-.88-.09-.67,0-1.2.15-1.57.45-.33.28-.5.64-.5,1.09,0,.61.33,1.04.99,1.29.43.17.66.25.68.26.21.11.31.26.31.44,0,.35-.26.53-.79.53-.39,0-.74-.07-1.04-.19l-.09,1.04c.3.08.67.12,1.09.12.64,0,1.16-.15,1.56-.44.39-.29.59-.68.59-1.16,0-.59-.34-1.02-1.01-1.29Z"/>
  </g>
  <g>
    <path class="cls-1" d="m94.86,54.58c-.66-.79-1.18-1.38-1.55-1.78l-5.05,4.06c.54.56,1.26,1.43,2.16,2.6.9,1.17,1.21,2.22.94,3.14,0,.03,0,.06.03.1.03,0,.06,0,.09,0l4.55-3.67c.56-.53.67-1.21.33-2.04-.34-.83-.85-1.63-1.51-2.42Z"/>
    <path class="cls-1" d="m93.9,27.43c-.93-1.63-1.04-1.22-1.48-2.41l-7.06-.31c-1.19.8-1.12,1.76.05,4.64,1.18,2.89,4.06,7.42,8.64,13.61-2.67.4-9.82,3.64-11.56,4.79l-.13.08c-4.69,2.89-6.04,8.53-6.19,10.39-.52,2.85.22,6.23,2.21,10.14.73,1.27,1.85,3.27,3.36,6,1.51,2.73,2.68,5.56,3.53,8.5.85,2.94.64,5.35-.6,7.24-.04.06-.04.08-.01.09.03.03.06.03.09,0l3.56-2.03c2.21-1.43,4.32-4.45,4.12-7.54,0-.02,0-.04,0-.06-.14-2.1-.71-4.33-1.69-6.68-.98-2.36-2.03-4.52-3.15-6.49-1.11-1.97-1.95-3.45-2.49-4.43-.29-.55-.55-1.09-.78-1.62-.22-.57-.41-1.15-.55-1.72-.05-.22-.13-.44-.17-.66h0c-.92-4.78.82-9.03,4.76-10.43,1.06-.38,2.2-.46,3.33-.37.7.06,1.4.15,2.12.29,2.25.43,4.24,1.3,5.97,2.6.84.63,1.63,1.37,2.35,2.21l6.7-5.41c-7.46-9.27-12.44-16.08-14.92-20.43Z"/>
  </g>
  <g>
    <path class="cls-2" d="m135.99,71.38l-9.69-36.49c1.94-.6,3.73-1.48,5.3-2.69,1.47-1.14,2.34-2.85,2.38-4.7.04-1.73-.68-3.35-1.97-4.44-.43-.36-.9-.65-1.4-.85-1.4-.57-3-.4-4.28.45-1.21.8-1.95,2.1-2.03,3.51l-2.07,2.07c-.21.21-.21.54,0,.74l2.61,2.61c.1.1.23.15.37.15s.27-.06.37-.15l2.61-2.61c.21-.21.21-.54,0-.74l-1.78-1.78s0-.05,0-.07c0-.79.41-1.51,1.1-1.97.7-.47,1.56-.56,2.31-.26.29.12.57.29.83.51.81.69,1.25,1.68,1.22,2.78-.03,1.19-.61,2.34-1.56,3.08-7.8,6.03-22.49,2.91-31.8-2.79,1.57.45,3.32.77,5.11.77,2.86,0,5.83-.82,8.33-3.26,1.78-1.73,2.5-4.21,1.88-6.48-.48-1.72-1.58-2.96-3.19-3.59-2.36-.93-5.01-.32-6.59,1.54-.66.77-1.35,2.01-1.34,3.82-1.53-.24-4.25-.9-6.62-2.72-1.44-1.1-2.56-2.5-3.32-4.16-.73-1.6-1.12-3.47-1.19-5.55l2.22-2.22c.12-.12.19-.28.19-.45s-.07-.33-.19-.45L89,.18c-.24-.24-.66-.24-.9,0l-4.8,4.8c-.25.25-.25.65,0,.9l2.22,2.22c-.07,2.09-.46,3.96-1.19,5.56-.76,1.66-1.87,3.06-3.32,4.16-2.35,1.81-5.08,2.47-6.62,2.71,0-1.8-.68-3.04-1.34-3.81-1.58-1.85-4.23-2.47-6.59-1.54-1.61.63-2.71,1.87-3.18,3.59-.62,2.26.09,4.74,1.87,6.48,3.94,3.85,9.05,3.67,13.07,2.59-9.32,5.64-23.88,8.68-31.63,2.68-.95-.73-1.53-1.88-1.56-3.08-.02-1.1.41-2.09,1.22-2.78.26-.22.54-.39.83-.51.75-.31,1.61-.21,2.31.26.67.45,1.06,1.13,1.09,1.9l-1.92,1.92c-.21.21-.21.54,0,.74l2.61,2.61c.1.1.23.15.37.15s.27-.06.37-.15l2.61-2.61c.1-.1.15-.23.15-.37s-.06-.27-.15-.37l-1.91-1.91c-.03-1.46-.79-2.83-2.04-3.67-1.29-.86-2.89-1.02-4.28-.45-.5.2-.97.49-1.4.85-1.29,1.09-2.01,2.71-1.97,4.44.04,1.85.91,3.57,2.38,4.7,1.61,1.25,3.46,2.14,5.45,2.74l-9.68,36.44h-4.13l1.74,1.92c6.83,7.52,18.64,7.59,25.55.14l1.91-2.06h-4.13l-9.56-36c1.74.37,3.56.55,5.44.55,10.08,0,21.5-4.96,27.14-10.67.02-.02.03-.05.05-.08h6.72s.03.06.05.08c5.64,5.71,17.06,10.67,27.14,10.67,1.94,0,3.83-.2,5.62-.59l-9.58,36.04h-4.13l1.74,1.92c6.83,7.52,18.64,7.59,25.55.14l1.91-2.06h-4.13Zm-93.44,0l8.99-33.86,8.99,33.86h-17.99ZM86.25,14.53s0-.01,0-.02h4.56s0,.01,0,.02c.64,1.4,1.51,2.63,2.55,3.7h-9.68c1.05-1.07,1.91-2.31,2.55-3.7Zm1.84-3.86c.12.12.29.19.45.19s.32-.06.45-.19l.61-.61c.17,1.29.46,2.49.88,3.61h-3.89c.42-1.11.72-2.32.89-3.61l.61.61Zm-21.47,13.06c-1.23-1.2-1.73-2.88-1.31-4.4h0c.3-1.08.92-1.8,1.92-2.19.48-.19.98-.28,1.47-.28,1.05,0,2.06.43,2.74,1.23.64.75.89,1.72.79,2.86-.11.02-.22.05-.33.06-.47.05-.95.03-1.4-.09-.44-.13-.83-.39-1.13-.79-.06-.08-.13-.17-.18-.26l.83-.84c.05-.04.05-.13,0-.18l-.98-.99c-.05-.04-.14-.04-.19,0l-.98.99c-.05.05-.05.14,0,.18l.91.92c.02.15.05.28.1.42.18.57.59,1.12,1.12,1.49.54.37,1.14.59,1.75.74.3.06.62.12.92.15.1,0,.2.01.29.02.08.02.16.03.25.02.03,0,.14,0,.31-.02.05,0,.08,0,.13,0h.12s.04-.02.05-.03c1.45-.14,5.19-.74,8.43-3.24.17-.13.32-.28.48-.42h11.53c.16.14.31.29.48.42,4.04,3.1,8.85,3.28,9.05,3.28.06,0,.12,0,.18-.02.21,0,.42-.01.63-.02.3-.03.62-.08.92-.15.61-.15,1.22-.37,1.75-.74.54-.37.93-.92,1.12-1.49.05-.15.09-.3.12-.46l.87-.88c.05-.04.05-.13,0-.18l-.98-.99c-.05-.04-.14-.04-.19,0l-.99.99c-.04.05-.04.14,0,.18l.86.86c-.05.08-.1.17-.17.24-.3.4-.69.66-1.13.79-.45.13-.92.15-1.4.09-.2-.02-.4-.06-.59-.1-.09-1.12.16-2.07.8-2.81,1-1.17,2.69-1.55,4.21-.94.99.39,1.62,1.1,1.92,2.18.42,1.52-.09,3.2-1.32,4.4-6.31,6.15-16.98-.44-17.09-.51-.17-.11-.36-.16-.56-.16h-8.53c-.2,0-.4.06-.56.16-.11.07-10.77,6.68-17.09.51Zm2.14-4.2l-.61-.6.8-.8.8.8-.68.67-.12.12-.19-.19Zm39.51.09l-.7-.69.8-.8.79.8-.56.56-.23.23-.09-.09Zm17.24,17.89l8.99,33.86h-17.99l8.99-33.86Z"/>
    <polygon class="cls-2" points="69.71 90.54 67.83 95.03 107.62 95.03 105.73 90.54 69.71 90.54"/>
  </g>
</svg>