<?xml version="1.0" encoding="UTF-8"?>
<svg id="Layer_1" data-name="Layer 1" xmlns="http://www.w3.org/2000/svg" viewBox="0 0 9.83 9.06">
  <defs>
    <style>
      .cls-1 {
        opacity: .13;
      }

      .cls-2 {
        fill: #034a4c;
      }

      .cls-2, .cls-3 {
        stroke-width: 0px;
      }

      .cls-3 {
        fill: #c59e35;
      }
    </style>
  </defs>
  <g class="cls-1">
    <g>
      <path class="cls-2" d="m5.49,5.2c-.06-.08-.11-.13-.15-.17l-.48.39c.05.05.12.14.21.25s.12.21.09.3h0l.44-.35c.05-.05.06-.12.03-.2-.03-.08-.08-.16-.14-.23h0Z"/>
      <path class="cls-2" d="m5.39,2.6c-.09-.16-.1-.12-.14-.23l-.67-.03c-.11.08-.11.17,0,.44.11.28.39.71.83,1.3-.25.04-.94.35-1.11.46h-.01c-.45.28-.58.82-.59,1-.05.27.02.6.21.97.07.12.18.31.32.57.14.26.26.53.34.81s.06.51-.06.69h0l.34-.19c.21-.14.41-.43.39-.72h0c-.01-.2-.07-.41-.16-.64-.09-.23-.19-.43-.3-.62s-.19-.33-.24-.42c-.03-.05-.05-.1-.07-.15s-.04-.11-.05-.16c0-.02-.01-.04-.02-.06h0c-.09-.46.08-.86.45-1,.1-.04.21-.04.32-.03.07,0,.13.01.2.03.21.04.41.12.57.25.08.06.16.13.22.21l.64-.52c-.71-.89-1.19-1.54-1.43-1.95h.02Z"/>
    </g>
    <g>
      <path class="cls-3" d="m9.42,6.8l-.93-3.49c.19-.06.36-.14.51-.26.14-.11.22-.27.23-.45,0-.17-.06-.32-.19-.42-.04-.03-.09-.06-.13-.08-.13-.05-.29-.04-.41.04s-.19.2-.19.34l-.2.2s-.02.05,0,.07l.25.25s.02,0,.04,0,.03,0,.04,0l.25-.25s.02-.05,0-.07l-.17-.17h0c0-.08.04-.14.11-.19.07-.04.15-.05.22-.02.03,0,.05.03.08.05.08.07.12.16.12.27s-.06.22-.15.29c-.75.58-2.15.28-3.04-.27.15.04.32.07.49.07.27,0,.56-.08.8-.31.17-.17.24-.4.18-.62-.05-.16-.15-.28-.3-.34-.23-.09-.48-.03-.63.15-.06.07-.13.19-.13.36-.15-.02-.41-.09-.63-.26-.14-.1-.24-.24-.32-.4-.07-.15-.11-.33-.11-.53l.21-.21s.02-.03.02-.04,0-.03-.02-.04L4.96,0s-.06-.02-.09,0l-.46.46s-.02.06,0,.09l.21.21c0,.2-.04.38-.11.53-.07.16-.18.29-.32.4-.23.17-.49.24-.63.26,0-.17-.07-.29-.13-.36-.15-.18-.4-.24-.63-.15-.15.06-.26.18-.3.34-.06.22,0,.45.18.62.38.37.86.35,1.25.25-.89.54-2.28.83-3.02.26-.09-.07-.15-.18-.15-.29s.04-.2.12-.27c.02-.02.05-.04.08-.05.07-.03.15-.02.22.02.06.04.1.11.1.18l-.18.18s-.02.05,0,.07l.25.25s.02,0,.04,0,.03,0,.04,0l.25-.25s0-.02,0-.04,0-.03,0-.04l-.18-.18c0-.14-.08-.27-.19-.35-.12-.08-.28-.1-.41-.04-.05.02-.09.05-.13.08-.12.1-.19.26-.19.42,0,.18.09.34.23.45.15.12.33.2.52.26l-.93,3.48h-.4l.17.18c.65.72,1.78.73,2.44.01l.18-.2h-.4l-.91-3.44c.17.04.34.05.52.05.96,0,2.06-.47,2.59-1.02h.64c.54.55,1.63,1.02,2.59,1.02.19,0,.37-.02.54-.06l-.92,3.45h-.4l.17.18c.65.72,1.78.73,2.44.01l.18-.2h-.4v.02ZM.49,6.8l.86-3.24.86,3.24H.49ZM4.66,1.37h.44c.06.13.14.25.24.35h-.93c.1-.1.18-.22.24-.35h.01Zm.18-.37s.03.02.04.02.03,0,.04-.02l.06-.06c.02.12.04.24.08.34h-.37c.04-.11.07-.22.08-.34l.06.06h.01Zm-2.05,1.25c-.12-.11-.17-.28-.13-.42h0c.03-.1.09-.17.18-.21.05-.02.09-.03.14-.03.1,0,.2.04.26.12.06.07.08.16.08.27h-.16s-.08-.04-.11-.08c0,0,0-.02-.02-.03l.08-.08v-.02l-.09-.09h-.02l-.09.09v.02l.09.09s0,.03,0,.04c.02.05.06.11.11.14.05.04.11.06.17.07.03,0,.06,0,.09,0h.1c.14,0,.5-.07.81-.31.02,0,.03-.03.05-.04h1.1s.03.03.05.04c.39.3.85.31.87.31h.08s.06,0,.09,0c.06,0,.12-.04.17-.07.05-.04.09-.09.11-.14,0,0,0-.03.01-.04l.08-.08v-.02l-.09-.09h-.02l-.09.09v.02l.08.08s-.01.02-.02.02c-.03.04-.07.06-.11.08-.04,0-.09,0-.13,0-.02,0-.04,0-.06,0,0-.11.02-.2.08-.27.1-.11.26-.15.4-.09.09.04.15.11.18.21.04.15,0,.31-.13.42-.6.59-1.62-.04-1.63-.05-.02,0-.03-.02-.05-.02h-.82s-.04,0-.05.02c-.01,0-1.03.64-1.63.05h-.02Zm.2-.4l-.06-.06.08-.08.08.08-.07.06h-.03Zm3.78,0l-.07-.07.08-.08.08.08-.05.05-.02.02h-.02Zm1.65,1.71l.86,3.24h-1.72s.86-3.24.86-3.24Z"/>
      <polygon class="cls-3" points="3.08 8.63 2.9 9.06 6.71 9.06 6.53 8.63 3.08 8.63"/>
    </g>
  </g>
</svg>