<?xml version="1.0" encoding="UTF-8"?>
<svg id="Layer_1" data-name="Layer 1" xmlns="http://www.w3.org/2000/svg" viewBox="0 0 9.83 9.06">
  <defs>
    <style>
      .cls-1 {
        opacity: .72;
      }

      .cls-2 {
        fill: #e0e0e0;
        stroke-width: 0px;
      }
    </style>
  </defs>
  <g class="cls-1">
    <g>
      <path class="cls-2" d="m5.16,4.82s-.05-.06-.06-.07l-.21.17s.05.06.09.11.05.09.04.13h0l.19-.15s.03-.05.01-.09c-.01-.03-.03-.07-.06-.1h0Z"/>
      <path class="cls-2" d="m5.12,3.7c-.04-.07-.04-.05-.06-.1h-.29s-.05.06,0,.18c.05.12.17.3.35.56-.11.02-.4.15-.47.2h0c-.19.12-.25.35-.25.43-.02.12,0,.26.09.41.03.05.08.13.14.24.06.11.11.23.15.35s.03.22-.03.29h0l.15-.08c.09-.06.18-.18.17-.31h0c0-.09-.03-.18-.07-.27-.04-.1-.08-.18-.13-.27s-.08-.14-.1-.18c-.01-.02-.02-.04-.03-.06s-.02-.05-.02-.07c0,0,0-.02,0-.03h0c-.04-.2.03-.37.19-.43.04-.02.09-.02.14-.01.03,0,.06,0,.09.01.09.02.18.05.24.11.03.03.07.06.09.09l.27-.22c-.3-.38-.51-.66-.61-.83h0Z"/>
    </g>
    <g>
      <path class="cls-2" d="m6.84,5.5l-.4-1.49c.08-.03.15-.06.22-.11.06-.05.09-.12.1-.19,0-.07-.03-.14-.08-.18-.02-.01-.04-.03-.06-.03-.06-.02-.12-.02-.18.02s-.08.09-.08.15l-.09.09s0,.02,0,.03l.11.11s0,0,.02,0,.01,0,.02,0l.11-.11s0-.02,0-.03l-.07-.07h0s.02-.06.05-.08c.03-.02.06-.02.09,0,.01,0,.02.01.03.02.03.03.05.07.05.12s-.03.09-.06.12c-.32.25-.92.12-1.3-.12.06.02.14.03.21.03.12,0,.24-.03.34-.13.07-.07.1-.17.08-.27-.02-.07-.06-.12-.13-.15-.1-.04-.21-.01-.27.06-.03.03-.06.08-.06.15-.06,0-.18-.04-.27-.11-.06-.04-.1-.1-.14-.17-.03-.06-.05-.14-.05-.23l.09-.09s0-.01,0-.02,0-.01,0-.02l-.2-.2s-.03,0-.04,0l-.2.2s0,.03,0,.04l.09.09c0,.09-.02.16-.05.23-.03.07-.08.12-.14.17-.1.07-.21.1-.27.11,0-.07-.03-.12-.06-.15-.06-.08-.17-.1-.27-.06-.06.03-.11.08-.13.15-.03.09,0,.19.08.27.16.16.37.15.53.11-.38.23-.97.35-1.29.11-.04-.03-.06-.08-.06-.12s.02-.09.05-.12c0,0,.02-.02.03-.02.03-.01.06,0,.09,0,.03.02.04.05.04.08l-.08.08s0,.02,0,.03l.11.11s0,0,.02,0,.01,0,.02,0l.11-.11s0,0,0-.02,0-.01,0-.02l-.08-.08c0-.06-.03-.12-.08-.15-.05-.03-.12-.04-.18-.02-.02,0-.04.02-.06.03-.05.04-.08.11-.08.18,0,.08.04.15.1.19.06.05.14.09.22.11l-.4,1.49h-.17l.07.08c.28.31.76.31,1.04,0l.08-.09h-.17l-.39-1.47c.07.02.15.02.22.02.41,0,.88-.2,1.11-.44h.27c.23.24.7.44,1.11.44.08,0,.16,0,.23-.03l-.39,1.47h-.17l.07.08c.28.31.76.31,1.04,0l.08-.09h-.18Zm-3.82,0l.37-1.39.37,1.39h-.74Zm1.78-2.32h.19c.03.06.06.11.1.15h-.4s.08-.09.1-.15h0Zm.08-.16s.01,0,.02,0,.01,0,.02,0l.03-.03c0,.05.02.1.03.15h-.16s.03-.09.03-.15l.03.03h0Zm-.88.53c-.05-.05-.07-.12-.06-.18h0s.04-.07.08-.09c.02,0,.04-.01.06-.01.04,0,.09.02.11.05.03.03.03.07.03.12h-.07s-.03-.02-.05-.03c0,0,0,0,0-.01l.03-.03h0s-.04-.05-.04-.05h0l-.04.04h0s.04.05.04.05c0,0,0,.01,0,.02,0,.02.03.05.05.06.02.02.05.03.07.03.01,0,.03,0,.04,0h.04c.06,0,.21-.03.35-.13,0,0,.01-.01.02-.02h.47s.01.01.02.02c.17.13.36.13.37.13h.03s.03,0,.04,0c.03,0,.05-.02.07-.03.02-.02.04-.04.05-.06,0,0,0-.01,0-.02l.03-.03h0s-.04-.05-.04-.05h0l-.04.04h0s.03.04.03.04c0,0,0,0,0,0-.01.02-.03.03-.05.03-.02,0-.04,0-.06,0,0,0-.02,0-.03,0,0-.05,0-.09.03-.12.04-.05.11-.06.17-.04.04.02.06.05.08.09.02.06,0,.13-.06.18-.26.25-.69-.02-.7-.02,0,0-.01,0-.02,0h-.35s-.02,0-.02,0c0,0-.44.27-.7.02h0Zm.09-.17l-.03-.03.03-.03.03.03-.03.03h-.01Zm1.62,0l-.03-.03.03-.03.03.03-.02.02h0s0,0,0,0Zm.71.73l.37,1.39h-.74s.37-1.39.37-1.39Z"/>
      <polygon class="cls-2" points="4.13 6.28 4.05 6.47 5.68 6.47 5.61 6.28 4.13 6.28"/>
    </g>
  </g>
</svg>